inDegrees=no
num_controls=7
num_derivatives=13
num_iterations=102
num_multipliers=7
num_parameters=0
num_slacks=7
num_states=26
objective=0.453698
objective_accelerations=0.047087
objective_balance=0.001033
objective_effort=0.036617
objective_height=0.363321
objective_ligament=0.005641
solver_duration=1102.643656
status=Solve_Succeeded
success=true
DataType=double
version=3
OpenSimVersion=4.5
endheader
time	/jointset/ground_pelvis/pelvis_tilt/value	/jointset/ground_pelvis/pelvis_tx/value	/jointset/ground_pelvis/pelvis_ty/value	/jointset/hip_r/hip_flexion_r/value	/jointset/hip_r/hip_adduction_r/value	/jointset/hip_r/hip_rotation_r/value	/jointset/back/lumbar_extension/value	/jointset/patellofemoral_r/patellar_flexion_r/value	/jointset/knee_r/knee_flexion_r/value	/jointset/knee_r/knee_adduction_r/value	/jointset/knee_r/knee_rotation_r/value	/jointset/ankle_r/ankle_angle_r/value	/jointset/subtalar_r/subtalar_angle_r/value	/jointset/ground_pelvis/pelvis_tilt/speed	/jointset/ground_pelvis/pelvis_tx/speed	/jointset/ground_pelvis/pelvis_ty/speed	/jointset/hip_r/hip_flexion_r/speed	/jointset/hip_r/hip_adduction_r/speed	/jointset/hip_r/hip_rotation_r/speed	/jointset/back/lumbar_extension/speed	/jointset/patellofemoral_r/patellar_flexion_r/speed	/jointset/knee_r/knee_flexion_r/speed	/jointset/knee_r/knee_adduction_r/speed	/jointset/knee_r/knee_rotation_r/speed	/jointset/ankle_r/ankle_angle_r/speed	/jointset/subtalar_r/subtalar_angle_r/speed	/forceset/tau_hip_flexion_r	/forceset/tau_hip_adduction_r	/forceset/tau_hip_rotation_r	/forceset/tau_knee_flexion_r	/forceset/tau_ankle_angle_r	/forceset/tau_subtalar_angle_r	/forceset/tau_lumbar_extension	lambda_cid13_p0	lambda_cid14_p0	lambda_cid14_p1	lambda_cid14_p2	lambda_cid14_p3	lambda_cid14_p4	lambda_cid14_p5	/jointset/ground_pelvis/pelvis_tilt/accel	/jointset/ground_pelvis/pelvis_tx/accel	/jointset/ground_pelvis/pelvis_ty/accel	/jointset/hip_r/hip_flexion_r/accel	/jointset/hip_r/hip_adduction_r/accel	/jointset/hip_r/hip_rotation_r/accel	/jointset/back/lumbar_extension/accel	/jointset/patellofemoral_r/patellar_flexion_r/accel	/jointset/knee_r/knee_flexion_r/accel	/jointset/knee_r/knee_adduction_r/accel	/jointset/knee_r/knee_rotation_r/accel	/jointset/ankle_r/ankle_angle_r/accel	/jointset/subtalar_r/subtalar_angle_r/accel	gamma_cid13_p0	gamma_cid14_p0	gamma_cid14_p1	gamma_cid14_p2	gamma_cid14_p3	gamma_cid14_p4	gamma_cid14_p5
1.5	-0.06438322369132901	0.03382545560641711	0.8204981352089669	0.7849233191906859	-0.2196387626139844	-0.1394520574564322	-0.6232861743969365	0.9317732553570156	0.9317732553570125	-0.0611525316421799	0.1745243722766395	0.3056356390481751	0.1485071645213285	0.4200702994361616	0.22113188333459	0.4969640366211494	-1.947503595611544	0.02913835113043667	-0.1848825988018265	0.8054867345503289	-1.946555037067581	-1.946555037067605	0.4411440835955209	-3.914326502623537e-05	-0.5246621710826245	-0.1703526013262276	-0.1471552901247595	0.003610330665080991	0.01913797419323277	-0.3137466587910708	0.0212193882603091	-0.002295443668876472	0.2051610517372315	-9.768652491194924	-35.49809505873143	-6.774710161842347	1.002094270186937	-2.915217874912293	-630.7532173938731	63.68340747906009	0.118390356638544	0.5455144389181834	-0.5038147793165599	-0.9487020354207283	-0.2050496307906266	-0.5600893037026028	1.73608253999641	-1.329722958610356	-1.329722958610271	0.4690239718269061	-0.01465348148953889	-0.6651199490444729	-0.4174711078592739	1.725749751713059e-07	1.848787202132497e-07	-6.578784616482085e-07	1.906744747944784e-06	-3.161253027901898e-08	3.11661793850475e-07	-5.464744511851568e-07
1.51	-0.06017686089876367	0.03606374242064094	0.8254415181014824	0.7654030458631969	-0.219358500680393	-0.1413279979474267	-0.6151462062913589	0.9122440741889625	0.9122440741889615	-0.05671583827413963	0.1745238716992922	0.3003563527185001	0.1467818094894295	0.4211447491336813	0.2264911199150345	0.4916009270249607	-1.956273574808947	0.02689739903192339	-0.190305589319656	0.8223685092358299	-1.958981135572654	-1.958981135572701	0.4461646075277208	-5.979723291718685e-05	-0.5311066181192065	-0.1746903001565102	-0.1402305297046908	0.002308592849361977	0.01884712177540333	-0.3093050054278241	0.02242981604421213	-0.002951364855347173	0.1985797692252818	-10.79095400532084	-34.81847344649484	-6.777188199475258	0.8158569593761411	-2.885078057224202	-625.7532599078343	63.28206398157079	0.0933588523863505	0.5259700079899625	-0.5692474314338493	-0.7995037411974055	-0.2359512692610578	-0.533196974753039	1.64346833342422	-1.154068258180975	-1.154068258184646	0.5140105627022212	0.004652358311101982	-0.6208117309053657	-0.4376229896246471	1.382294678279019e-07	1.497138602638161e-07	-5.604133609282075e-07	1.543508613531867e-06	-2.500542898296309e-08	2.836597155753393e-07	-4.932553671470499e-07
1.52	-0.05596147629400607	0.0383545899487456	0.8303279322217031	0.7458034011678749	-0.219101114921763	-0.1432581269533853	-0.6068415717588063	0.8925996290435145	0.8925996290435134	-0.05222985087502065	0.1745232493248165	0.2950152809884714	0.1450139367254251	0.4218746618743056	0.2316440261107579	0.4855702821622163	-1.963377869178245	0.02456311613823568	-0.1957203017946825	0.838420019945223	-1.969607832546736	-1.969607832546808	0.4510028898113485	-6.350269080898763e-05	-0.5370192511533995	-0.1788561477472685	-0.133305769284623	0.001006855033640575	0.01855626935757282	-0.3048633520645769	0.02364024382811517	-0.003607286041821988	0.1919984867133323	-11.81504800078133	-34.13892973209881	-6.777407700545059	0.6266636913764417	-2.869070981843144	-620.7540743067741	62.93864017667305	0.04948296525944509	0.5042483619739688	-0.6373218326277156	-0.6155650697995411	-0.2237157898255205	-0.5584336951420118	1.570029744774794	-0.9698426524122638	-0.9698426524122629	0.4325756421124718	-0.01126377948970363	-0.5587571485666963	-0.3831008599544301	1.201574639654033e-07	1.235484829620712e-07	-5.820856802694655e-07	1.285868822364527e-06	-1.051723494382443e-08	2.692426768036242e-07	-5.145646367651418e-07
1.53	-0.05174056222728408	0.04069590076225481	0.8351507814994884	0.7261410718128609	-0.2188673814090663	-0.145242978223384	-0.5983806294688636	0.8728578919383564	0.8728578919383534	-0.04769711392760448	0.1745228397029263	0.2896178605248296	0.1432055640424583	0.4222466306394194	0.2365799579134302	0.4788959684797502	-1.968805120884461	0.0221776323183695	-0.2012532149169309	0.8536225259399115	-1.978431775014574	-1.978431775014596	0.4554939085146499	-2.410722940503738e-05	-0.5423651865149989	-0.1827719883174922	-0.1263417196385818	-0.0006056855481990348	0.01832546956548886	-0.300795996929799	0.02509298766274258	-0.00426166561334824	0.1854222286879366	-12.8379312501944	-33.40332874982528	-6.767810229274653	0.4366685471717929	-2.893750475476972	-616.082988559741	62.72448008876594	0.0218340332930701	0.4825437045206056	-0.6979730195442626	-0.4638607089710261	-0.2467598791744751	-0.5510052393890376	1.473474211315456	-0.7925218149709333	-0.7925218149633743	0.4496787299043003	0.0108715869023297	-0.5075319369597018	-0.3888669096505135	1.193760575513663e-07	1.069450559734953e-07	-7.303415084258094e-07	1.140425145895611e-06	1.234462013483959e-08	2.692597425042936e-07	-6.150602821429441e-07
1.54	-0.04751777243267909	0.04308542651681202	0.8399037902637513	0.7064329588431968	-0.2186576617747904	-0.1472832156483297	-0.5897720394820739	0.85303714505432	0.8530371450543148	-0.04312100404406321	0.1745226901112386	0.2841699766661713	0.1413594247029703	0.4222498074507617	0.241287014320359	0.4716021794577462	-1.972534592108214	0.01976034045421274	-0.2067975327840912	0.867949559314584	-1.985409788322466	-1.985409788322437	0.4596774770365648	-1.149665012572423e-05	-0.5471119301567243	-0.186409479051483	-0.1193776699925461	-0.002218226130042987	0.01809466977340942	-0.2967286417950212	0.02654573149736927	-0.004916045184881366	0.178845970662537	-13.85557769491949	-32.66864858051277	-6.757365341712968	0.2453857797632177	-2.926935480574348	-611.4199987306872	62.56161621405037	-0.02427542549485184	0.4584732828252609	-0.7612169005352899	-0.2760089733067149	-0.2300773986836447	-0.5607146441243901	1.39493522077155	-0.6006568204230653	-0.600656820423026	0.3710856058351541	-0.01662075591462518	-0.4389188045919514	-0.3274308927078561	1.213848677591123e-07	9.084032223219708e-08	-9.035953041844292e-07	9.926859544978429e-07	3.800675330321357e-08	2.670218208074454e-07	-7.197416856517936e-07
1.55	-0.04329697677312427	0.04552075279731938	0.8445808722436532	0.6866962138376403	-0.2184722206355072	-0.1493795065980633	-0.5810248127913554	0.8331556193477709	0.8331556193477637	-0.03850495986833095	0.1745229188314924	0.2786774436495222	0.1394783050947949	0.4218315169802741	0.2457269310854628	0.4637213629692806	-1.974512705381994	0.01732326226851874	-0.2124503478367287	0.8813208695763991	-1.990599480871264	-1.990599480871247	0.4634972943007852	5.117841635534289e-05	-0.551312880512576	-0.1897766334100037	-0.1122085340884838	-0.003852378500825676	0.0179086932142125	-0.2931409122378104	0.02823088986081883	-0.005767857281107739	0.1721113563919874	-14.8640388741097	-31.90748138109822	-6.848370516431576	0.09351365317060054	-2.863467654973031	-607.1559122088447	62.31038765001158	-0.0622725541406243	0.4290708578964399	-0.8153901561895113	-0.11344959966184	-0.2511969528578243	-0.5658242837343874	1.281992540990776	-0.433770556767608	-0.4337705567694515	0.3821634422446109	0.01691929154414473	-0.3983701907239294	-0.3357879153774722	1.266084927702169e-07	7.531016984102297e-08	-1.105651106093495e-06	8.423019306820491e-07	6.689529383581844e-08	2.62185761456936e-07	-8.292458104855451e-07
